<svg width="377" height="279" viewBox="0 0 377 279" fill="none" xmlns="http://www.w3.org/2000/svg">
<path d="M193.109 48.5502L292.777 48.584L322.117 48.5837C330.045 48.5887 339.195 47.7042 346.507 50.8577C357.877 55.7739 366.87 64.9492 371.555 76.4162C380.255 98.2722 372.974 129.136 349.404 138.414C349.927 138.543 350.447 138.688 350.962 138.849C373.007 145.859 379.945 178.346 373.765 198.123C368.332 213.298 355.454 221.248 340.217 224.521C333.692 225.921 327.094 225.633 320.464 225.631L301.475 225.621L229.342 225.618L205.881 225.616C202.176 225.618 196.928 225.456 193.387 225.721L193.12 225.743L193.109 48.5502Z" fill="white"/>
<path d="M286.167 75.3393C288.397 75.313 294.142 75.136 296.069 75.5063C296.632 76.0753 296.607 76.1688 296.877 76.908C296.584 78.5478 295.677 77.5678 294.314 78.6103C293.974 80.3595 294.142 85.538 294.149 87.579L294.154 102.974L294.122 166.743C300.612 170.276 307.382 175.136 313.879 178.788C313.689 186.246 313.917 193.806 313.737 201.311L296.292 201.306L268.654 201.311L268.637 178.738C274.402 174.758 281.882 170.838 288.047 167.048C287.664 160.081 287.929 150.654 287.929 143.484L287.927 99.7943L287.937 86.3835C287.944 84.2403 288.074 80.8853 287.919 78.8753C286.982 78.568 286.834 78.5765 286.169 77.9018C285.804 77.018 286.024 76.314 286.167 75.3393Z" fill="black"/>
<path d="M223.112 69.054C232.605 68.7348 244.387 69.0632 254.085 69.0517C256.732 70.6355 262.812 75.5247 264.682 76.3007C264.75 82.6858 264.542 89.587 264.862 95.92C261.515 97.2615 257.917 99.435 254.327 100.927C250.075 101.261 224.322 101.516 221.432 100.663C218.382 99.7625 215.09 97.328 212.333 95.736C212.15 90.619 212.156 80.8928 212.426 75.936C216.21 73.7443 218.997 71.189 223.112 69.054Z" fill="black"/>
<path d="M233.097 107.312L242.187 107.319C242.002 130.312 241.955 153.306 242.047 176.301C242.1 181.213 242.872 184.976 243.502 189.691C243.759 191.621 243.949 200.528 243.499 202.191L242.98 202.318L231.697 202.351C231.657 198.943 231.57 194.186 231.867 190.846C232.327 185.656 233.039 181.421 233.064 176.123C233.164 153.196 232.984 130.237 233.097 107.312Z" fill="black"/>
<path d="M0.672485 48.369C1.99124 48.999 6.63249 52.552 8.04749 53.595L24.83 66.0013L66.3827 96.5043C73.0852 101.427 83.642 108.665 89.6032 113.884C87.567 109.57 85.3397 105.971 83.6715 101.592C78.862 88.9688 80.5562 83.4285 87.1 72.2548C90.2322 66.9068 93.0195 57.121 93.7797 50.765C94.2125 52.4823 94.5007 56.8148 95.3375 57.935C101.701 66.4798 111.782 69.7193 114.763 81.2815C118.416 95.451 109.128 103.787 103.003 114.62L102.794 114.994C107.174 112.108 114.563 105.904 118.899 102.54L153.136 75.9525L176.066 58.1608C178.85 56.0103 186.096 50.6538 188.067 48.5238L188.07 108.938L188.115 226.098C179.449 225.936 170.403 226.058 161.712 226.058L113.262 226.063C113.415 221.851 113.043 215.731 113.408 211.793C107.726 216.431 101.313 221.851 95.5235 226.233C90.8327 221.756 82.5645 215.143 77.3955 210.998C77.5455 215.911 77.4397 220.876 77.6027 225.818C60.2587 226.101 42.1365 225.856 24.7357 225.843L10.5107 225.821C7.52648 225.818 3.58224 225.716 0.684486 226.066C0.994986 221.556 0.851234 215.991 0.847984 211.366L0.843483 187.413L0.841984 111.963L0.830734 67.6978C0.832484 64.3845 1.09824 50.9608 0.672485 48.369Z" fill="white"/>
<path d="M109.687 251.401C116.529 250.201 123.049 254.773 124.254 261.613C125.459 268.456 120.894 274.978 114.054 276.191C107.206 277.403 100.671 272.831 99.4645 265.981C98.2577 259.131 102.836 252.601 109.687 251.401Z" fill="white"/>
<path d="M110.095 253.001C113.978 252.383 117.893 253.898 120.347 256.971C122.801 260.043 123.415 264.196 121.955 267.848C120.495 271.498 117.186 274.083 113.291 274.616C107.359 275.426 101.88 271.311 101.004 265.388C100.128 259.466 104.182 253.941 110.095 253.001Z" fill="black"/>
<path d="M11.348 251.403C18.2095 250.216 24.7313 254.826 25.8963 261.693C27.0613 268.558 22.426 275.063 15.5565 276.203C8.72101 277.338 2.25501 272.733 1.09576 265.901C-0.0634868 259.071 4.52076 252.588 11.348 251.403Z" fill="white"/>
<path d="M11.81 253.003C15.701 252.406 19.6127 253.951 22.0447 257.046C24.477 260.143 25.0517 264.308 23.549 267.948C22.046 271.586 18.699 274.133 14.791 274.611C8.87723 275.333 3.47798 271.176 2.66373 265.276C1.84923 259.373 5.92148 253.911 11.81 253.003Z" fill="black"/>
<path d="M0 237.118C33.3765 236.703 67.6075 237.071 101.067 237.073H294.837L358.122 237.076C360.107 237.076 375.207 236.871 376.004 237.386L376.145 238.248C370.507 238.501 364.147 238.366 358.454 238.366L328.684 238.361L237.424 238.363L0.664749 238.303C0.0364991 237.901 0.24 238.073 0 237.118Z" fill="white"/>
<path d="M0.404785 36.193C4.76304 35.953 9.71004 36.0517 14.1155 36.0522L36.1138 36.0562L103.998 36.0552L312.452 36.0542L354.815 36.0555C357.382 36.0557 375.447 35.8147 376.24 36.4102L376.305 37.003C365.715 37.6755 351.355 37.2635 340.412 37.2617L276.397 37.2607L76.9355 37.2605C70.0513 37.261 2.23579 37.6815 0.724285 36.9255C0.439535 36.783 0.472785 36.4775 0.404785 36.193Z" fill="white"/>
<path d="M42.4631 1.88174C48.7541 0.673235 54.8421 4.76524 56.0991 11.0467C57.3558 17.3282 53.3111 23.4475 47.0396 24.7527C40.6991 26.0722 34.4981 21.9735 33.2273 15.6232C31.9566 9.27299 36.1033 3.10349 42.4631 1.88174Z" fill="white"/>
<path d="M43.3503 3.291C48.8563 2.58425 53.8998 6.45574 54.6403 11.9572C55.3806 17.4587 51.5398 22.526 46.0431 23.2997C40.4983 24.0802 35.3778 20.1992 34.6311 14.65C33.8843 9.10074 37.7968 4.004 43.3503 3.291Z" fill="black"/>
<path d="M300.68 1.81647C305.025 1.85097 310.105 1.67822 313.352 4.99247C318.125 9.86197 317.762 16.8787 313.2 21.7122C308.98 25.1595 306.027 24.8457 300.65 24.619L300.68 1.81647Z" fill="white"/>
<path d="M302.237 3.35773C305.367 3.43198 308.685 3.42097 311.3 5.35797C314.592 7.79697 315.814 12.1177 314.747 15.999C314.239 17.848 313.522 18.9622 312.337 20.4207C309.115 23.327 306.365 23.0405 302.242 23.1155C302.02 17.2552 302.152 9.23448 302.237 3.35773Z" fill="black"/>
<path d="M229.952 1.80225C233.12 2.07975 236.632 1.45174 239.425 3.39999C242.782 5.74349 241.492 9.88349 239.38 12.5735C243.525 15.0312 244.572 17.8605 242.137 22.0983C239.07 25.6843 234.312 24.722 229.965 24.6397C230.232 18.652 230.06 12.5727 230.117 6.57625C230.132 4.996 230.13 3.37275 229.952 1.80225Z" fill="white"/>
<path d="M235.082 13.6825C241.822 13.6165 244.574 19.561 238.949 22.698C236.359 23.1237 234.249 23.0572 231.647 23.0517L231.692 13.7712L235.082 13.6825Z" fill="black"/>
<path d="M231.705 3.3385C236.735 3.446 242.64 4.752 238.61 11.0855C236.6 12.4117 234.032 12.2835 231.692 12.3265C231.665 9.34325 231.697 6.325 231.705 3.3385Z" fill="black"/>
<path d="M132.946 251.496C135.769 251.813 138.779 251.326 141.357 252.688C145.965 255.123 144.831 262.038 140.347 263.936C139.238 264.406 138.365 264.551 137.196 264.756C138.593 266.376 144.63 274.441 144.809 276.053C143.616 276.823 142.479 274.896 141.873 274.051C139.315 270.628 137.563 267.381 134.671 264.043C134.717 265.961 135.031 275.158 134.222 276.186C133.524 276.158 133.87 276.233 133.212 275.718C132.664 274.693 132.953 269.518 132.959 268.083L132.946 251.496Z" fill="white"/>
<path d="M134.816 253.098C137.147 253.216 138.845 253.141 140.855 254.603C143.244 256.343 142.804 259.556 141.108 261.641C138.864 262.991 137.232 262.831 134.688 262.843C134.682 259.548 134.674 256.388 134.816 253.098Z" fill="black"/>
<path d="M295.369 251.548C298.314 251.813 301.279 251.243 304.024 252.841C307.152 254.661 307.554 258.853 305.532 261.696C304.067 263.753 302.039 264.368 299.607 264.696C301.949 267.463 305.294 272.308 307.094 275.521C307.339 275.956 307.247 275.888 307.057 276.363L306.657 276.353C305.434 275.573 305.304 275.401 304.407 274.278C302.069 270.676 299.584 267.171 296.959 263.768C296.994 266.173 297.572 274.996 296.279 276.348L295.949 276.198C295.214 275.138 295.364 271.971 295.362 270.566C295.349 264.228 295.362 257.888 295.369 251.548Z" fill="white"/>
<path d="M297.197 253.166C299.377 253.113 301.227 253.056 303.084 254.408C305.949 256.491 305.214 259.351 303.284 261.718C301.217 263.111 299.549 262.868 297.117 262.856C296.887 259.811 297.014 256.211 297.197 253.166Z" fill="black"/>
<path d="M343.937 1.7995C347.865 1.88925 353.817 1.63775 354.54 6.6375C355.215 11.326 352.27 13.509 348.2 14.0532C349.485 15.8537 355.075 22.987 354.707 24.7095L354.157 24.7905C353.255 24.333 352.885 23.5915 352.292 22.7375L345.935 13.3877C345.875 16.852 345.785 20.362 345.9 23.829C345.92 24.431 345.822 24.332 345.352 24.733C344.405 24.7772 344.8 24.9123 344.09 24.4355C343.762 22.6255 344.155 20.5572 344.09 18.7045C343.912 13.5987 344.412 7.037 343.965 2.09775L343.937 1.7995Z" fill="white"/>
<path d="M345.932 3.27899C351.082 3.37074 355.569 6.21049 351.589 11.395C349.319 12.5895 348.392 12.574 345.882 12.5795C345.819 9.47924 345.837 6.37824 345.932 3.27899Z" fill="black"/>
<path d="M222.662 250.456C223.259 251.076 232.764 275.211 232.702 275.861C232.104 276.141 232.427 276.078 231.689 275.936C230.439 274.833 228.845 269.921 228.117 268.076C226.64 267.908 225.217 267.968 223.729 267.988C221.622 267.986 219.517 268.011 217.409 268.063C216.764 269.768 214.664 275.823 213.215 276.421C212.182 274.601 221.637 254.283 222.662 250.456Z" fill="white"/>
<path d="M222.627 255.431C223.554 256.243 226.634 264.671 227.469 266.518L223.057 266.478L218.12 266.518C219.627 262.901 220.984 258.946 222.627 255.431Z" fill="black"/>
<path d="M363.852 250.663C363.952 250.751 364.142 250.903 364.177 251.018C365.28 254.546 374.367 274.161 373.927 276.268L373.562 276.296C371.545 274.768 370.177 270.288 369.27 267.863L364.98 267.983L358.617 268.021C358.015 270.318 356.102 275.256 354.23 276.683C353.812 274.086 362.36 255.441 363.75 251.001L363.852 250.663Z" fill="white"/>
<path d="M363.862 255.168C364.595 255.551 368.005 264.773 368.695 266.393C367.207 266.446 365.637 266.446 364.142 266.468L359.405 266.508C360.917 262.771 362.512 258.958 363.862 255.168Z" fill="black"/>
<path d="M243.365 250.448C243.76 250.803 251.615 270.791 252.24 272.778C255.175 266.548 259.16 256.241 261.522 249.791C262.187 255.813 263.805 261.773 264.967 267.716C265.252 269.173 266.947 275.221 266.027 276.203C264.235 275.276 264.087 271.391 263.697 269.638C262.815 265.668 262.247 261.453 261.1 257.558L260.977 257.148L260.792 256.571L260.56 256.588C258.582 261.366 256.812 266.271 254.755 271.028C253.75 273.348 252.707 275.823 252.312 278.321C251.562 273.368 245.857 261.478 243.947 255.763C242.92 261.261 241.14 270.388 239.827 275.593C239.135 276.328 239.52 276.183 238.735 276.331L238.517 276.153C237.97 274.606 238.972 272.066 239.312 270.423L241.64 259.138C241.91 257.836 243.077 251.256 243.365 250.448Z" fill="white"/>
<path d="M68.4303 251.393C69.4993 251.661 87.1125 270.531 88.8033 272.726C88.933 269.293 88.427 253.266 89.565 251.578C90.278 251.581 89.987 251.458 90.4828 251.923C91.0493 257.116 90.5275 263.868 90.6523 269.251C90.6738 270.173 90.73 275.928 90.6485 276.663L90.2558 276.731C88.8955 274.753 84.2555 270.141 82.3663 268.163L70.2385 255.223C70.3088 259.891 70.3418 264.556 70.3378 269.223C70.3393 270.656 70.4233 274.778 70.1915 275.966C69.4413 276.226 69.8143 276.223 69.0363 275.921C68.0735 274.553 68.5498 273.441 68.502 271.913C68.2948 265.268 68.927 257.963 68.4303 251.393Z" fill="white"/>
<path d="M129.149 21.728C131.564 14.5797 135.364 7.00149 137.533 0.0574951C137.814 6.658 141.039 16.3932 141.903 23.21C142.005 24.015 142.021 24.1577 141.668 24.733L141.149 24.4542C139.582 22.267 139.817 20.475 139.343 17.9562C138.692 14.579 137.976 11.2143 137.195 7.86425C137.14 7.4675 137.118 7.504 136.957 7.12675L136.552 7.25325C135.786 8.53225 135.434 9.91625 134.867 11.3177C133.147 15.5655 130.214 21.701 129.109 25.9922C127.347 21.3002 122.118 9.41024 121.212 5.35374C121.17 5.71199 121.121 6.0695 121.064 6.42575C120.458 10.1133 119.571 13.8627 118.835 17.5322C118.408 19.6567 118.245 23.414 116.447 24.7253L116.102 24.6305C115.888 23.6355 120.068 3.96975 120.597 1.18625C121.199 1.64175 128.188 19.4852 129.149 21.728Z" fill="white"/>
<path d="M22.4333 0C22.6266 3.2655 27.5213 23.608 26.8953 24.7495C26.1063 24.837 26.4511 24.9235 25.8116 24.5527C24.3346 19.352 23.6001 13.502 22.1758 8.116C22.0378 7.359 22.1943 7.687 21.6743 7.10325C21.1346 7.47225 20.1708 10.4685 19.7978 11.3965C17.8313 16.2522 15.8266 21.0925 13.7836 25.9167C12.5471 20.3622 8.02982 11.965 6.30282 5.8035C5.87132 8.1375 2.64457 24.0527 1.70532 24.9165L1.38882 24.8877C1.10907 24.247 1.09332 23.4365 1.23882 22.762C2.77857 15.6288 4.05432 8.04275 5.67457 0.9645L6.01157 1.2825C6.69457 3.6875 7.98432 6.565 8.93457 8.9275L13.9641 21.5573C16.5133 15.2598 20.5686 6.24925 22.4333 0Z" fill="white"/>
<path d="M64.0916 1.61298C64.6536 1.85323 81.4351 19.6607 83.2071 21.509C83.0708 20.6115 82.9131 16.2752 83.0188 15.4492C83.3298 13.016 82.5306 3.54198 83.4538 2.02122C84.2193 1.71297 83.8473 1.72097 84.6061 1.95647C84.8116 3.08447 84.7216 7.69523 84.7188 9.16798L84.6868 24.5242C84.8341 24.8997 84.7718 24.7285 84.6761 25.2255C83.7016 24.9107 67.9246 7.76097 65.8253 5.54672C66.0168 10.286 65.6161 15.1745 65.8296 19.9322C65.9073 21.6647 65.8068 23.4367 64.9918 25.001L64.2991 24.7082C64.0343 23.2007 64.1283 18.9147 64.1291 17.155C64.1618 11.9745 64.1493 6.79348 64.0916 1.61298Z" fill="white"/>
<path d="M188.445 261.908C188.483 258.791 188.536 255.576 188.43 252.446C188.411 251.901 188.586 251.913 188.993 251.581C189.86 251.578 189.485 251.448 190.161 251.963C190.418 253.218 190.375 258.938 190.349 260.581C190.272 265.498 190.543 270.963 190.297 275.821C189.371 276.231 189.569 276.086 188.421 275.991C188.459 271.798 188.461 267.606 188.429 263.411C183.784 263.231 178.708 263.503 173.979 263.426C173.986 265.538 174.44 274.961 173.252 276.081L172.533 276.033C171.68 274.776 172.168 254.373 172.214 251.426C173.017 251.491 173.087 251.453 173.846 251.786C174.253 252.506 173.938 260.593 173.914 261.851C178.291 262.051 184.016 261.963 188.445 261.908Z" fill="white"/>
<path d="M187.902 21.647C187.887 18.8 187.399 2.80521 188.602 1.53271C188.668 1.62296 188.745 1.70597 188.8 1.80297C189.757 3.49447 189.704 23 189.234 25.5862C187.523 23.3447 183.865 19.719 181.808 17.5627L170.326 5.34846C170.804 9.83196 170.318 19.3562 170.498 24.3257C170.353 24.532 170.207 24.7382 170.061 24.9445C168.244 25.007 168.89 18.738 168.889 17.1582C168.916 12.0022 168.893 6.84597 168.821 1.69047C170.216 2.42572 185.702 19.2477 187.902 21.647Z" fill="white"/>
<path d="M336.927 251.356C340.78 251.078 345.71 251.783 347.54 255.723L347.255 256.081C345.635 256.256 338.742 248.776 331.537 255.741C323.622 263.388 329.262 274.453 339.24 274.726C342.58 274.401 344.137 273.146 346.922 271.308L347.182 271.568C346.922 274.813 344.15 275.058 341.495 275.993C338.867 276.918 335.237 276.218 332.82 274.886C329.777 273.226 327.527 270.416 326.572 267.083C325.695 263.853 326.132 260.408 327.787 257.498C329.955 253.763 332.965 252.408 336.927 251.356Z" fill="white"/>
<path d="M274.159 251.593C276.794 251.661 284.104 251.381 286.104 251.911L286.272 252.381C285.322 253.811 277.987 253.236 275.864 253.233C275.897 256.091 275.859 258.948 275.747 261.803C278.469 261.826 283.127 261.731 285.679 261.983L285.959 262.458L285.822 262.976C284.127 264.188 278.654 262.708 276.134 263.556C275.747 264.168 275.874 265.343 275.877 266.126C275.789 268.663 275.872 271.758 275.869 274.341C278.507 274.351 283.324 274.168 285.742 274.353C286.229 274.968 286.042 274.608 286.064 275.593C285.232 276.421 275.979 276.051 274.142 276.061L274.159 251.593Z" fill="white"/>
<path d="M93.4146 1.71045C93.9536 1.7752 94.4531 1.8557 94.9878 1.9402C95.5681 3.05845 95.1051 14.5702 95.2196 17.3695C95.4896 23.9645 102.554 25.1182 106.458 21.0177C108.416 18.9607 106.526 3.55496 107.85 1.77921L108.423 1.81445C109.143 2.50545 108.939 2.16245 108.969 3.44645C109.021 7.8287 109.833 18.1677 107.743 21.8525C105.084 26.5412 94.9278 26.0742 93.8046 19.3642C92.8443 13.6282 94.0826 7.36545 93.4146 1.71045Z" fill="white"/>
<path d="M251.207 1.67072C251.824 1.71897 252.012 1.67096 252.529 2.00146C253.764 5.36346 252.157 14.5177 252.982 18.653C253.764 22.574 257.599 24.1307 260.914 23.2102C268.447 21.1185 263.374 7.33647 265.574 2.04622C265.679 1.79272 266.132 1.81621 266.374 1.78371L266.794 2.16497L266.769 2.87421C266.817 7.73696 267.912 18.997 264.774 22.6812C261.552 26.4662 252.167 25.5587 251.452 19.2367C250.809 13.5395 251.147 7.51897 251.207 1.67072Z" fill="white"/>
<path d="M149.142 1.82001C151.288 2.04301 158.862 1.60976 160.403 2.29526L160.443 2.6515C159.121 3.89175 152.934 3.39901 150.842 3.34801C150.844 6.06326 150.832 8.77826 150.806 11.4933C153.347 11.4743 157.618 11.2255 159.907 12.094L159.932 12.3663C157.939 13.1888 153.158 12.9328 150.842 12.9193L150.832 15.2508L150.743 23.0478C152.605 23.0353 160.135 22.3913 160.583 24.1428C159.669 24.948 151.111 24.7055 149.135 24.7773C149.182 17.1248 149.184 9.47226 149.142 1.82001Z" fill="white"/>
<path d="M324.45 1.85799C326.707 1.93749 333.6 1.67349 335.327 2.04024C335.7 2.67474 335.63 2.33224 335.457 3.11499C334.762 3.61874 327.392 3.45324 326.065 3.39799C326.135 6.05399 326.11 8.82274 326.122 11.4892C327.827 11.4765 334.265 11.1822 335.32 12.2142C334.052 13.13 327.985 12.9475 326.152 12.9617L326.13 16.1257C326.13 18.4367 326.105 20.7477 326.055 23.0582C328.087 23.0292 333.77 22.736 335.472 23.414C335.747 24.0545 335.672 23.7105 335.485 24.5045C334.092 24.858 326.625 24.651 324.425 24.7457L324.45 1.85799Z" fill="white"/>
<path d="M367.447 1.85076C367.894 1.81376 368.344 1.79076 368.794 1.78176C370.887 1.75176 374.724 2.79476 374.617 5.42251C373.532 5.53701 370.834 2.98901 368.657 3.17101C366.757 3.33001 364.592 5.78901 364.874 7.49576C365.872 11.1648 370.849 11.868 373.642 14.1485C376.737 16.6735 376.424 20.0645 373.937 22.9788C372.632 24.507 370.384 24.8245 368.377 24.8723C365.752 24.769 361.562 22.2875 362.292 19.5993C364.319 19.717 366.684 25.555 371.357 22.8585C372.542 22.1753 373.929 20.5385 374.169 19.3083C375.524 12.3933 359.999 13.703 363.817 5.15951C364.697 3.18901 365.464 2.62351 367.447 1.85076Z" fill="white"/>
<path d="M34.5013 251.561C36.3113 251.601 43.6988 251.318 44.6413 252.071C44.6568 253.823 37.914 253.291 36.3803 253.288L36.4148 261.783C38.0798 261.843 43.8548 261.251 44.4403 262.768L44.1318 263.191C42.797 263.416 40.9013 263.363 39.501 263.371L36.414 263.406C36.407 265.638 36.689 274.401 36.1203 275.751C35.4745 276.321 35.8373 276.203 35.0093 276.156C34.0593 274.968 34.4385 254.643 34.5013 251.561Z" fill="white"/>
<path d="M151.328 251.653C153.115 251.643 163.772 251.436 164.632 251.898L164.696 252.751L164.344 253.093C162.867 253.406 160.188 253.253 158.583 253.226C158.372 259.021 158.534 265.761 158.536 271.626C158.525 273.131 159.094 275.298 157.86 276.126C157.037 276.066 157.372 276.221 156.796 275.706C156.328 269.968 156.693 259.251 156.645 253.118C154.995 253.196 151.589 253.541 150.257 252.803L150.167 252.371C150.665 251.648 150.33 251.931 151.328 251.653Z" fill="white"/>
<path d="M196.182 1.8855C198.109 2.047 208.75 1.76 209.607 2.086L209.736 2.52275L209.404 3.028C207.834 3.563 205.353 3.45249 203.683 3.40649L203.68 19.1882C203.655 20.5557 203.864 23.148 203.577 24.226C202.957 24.917 203.323 24.7492 202.498 24.8565C201.621 23.7477 202.046 6.33025 202.059 3.501C200.187 3.37025 198.281 3.71025 196.602 3.24825C196.059 2.647 196.221 2.89325 196.182 1.8855Z" fill="white"/>
<path d="M286.495 1.63721C287.03 1.71821 287.235 1.78796 287.752 1.94996C288.262 3.30121 287.937 20.349 287.922 23.06C289.58 23.035 292.705 22.7287 293.912 23.6175C293.922 24.3922 294.025 24.043 293.577 24.6952C291.832 24.5372 288.137 24.6942 286.372 24.7857C286.375 17.5517 286.145 8.77696 286.495 1.63721Z" fill="white"/>
<path d="M315.957 251.486C316.725 251.523 316.845 251.468 317.527 251.838C317.852 253.021 317.712 259.511 317.702 261.061C317.67 266.056 317.67 271.051 317.702 276.046C317.235 276.098 316.775 276.131 316.307 276.166L315.992 275.881C315.755 273.498 315.892 269.251 315.905 266.751L315.957 251.486Z" fill="white"/>
<path d="M275.445 1.68347C276.152 1.73372 276.64 1.66747 277.142 2.13172C277.382 4.86447 277.427 23.4182 276.967 25.1007L275.92 24.8167C275.802 24.6912 275.685 24.5657 275.567 24.4402C275.137 17.9732 275.885 7.66972 275.445 1.68347Z" fill="white"/>
</svg>
